# xmcd
# 
# Track frame offsets:
#     150
#     9904
#     41041
#     76016
#     123554
#     169403
#     187510
#     211584
# 
# Disc length: 2978
# 
# Revision: 2
# Processed by: cddbd v1.5.2PL0 Copyright (c) Steve Scherf et al.
# Submitted via: BonkEnc v1.0.15
# 
DISCID=540ba008
DTITLE=Ryszard Riedel (various) - Rysiek
DYEAR=1999
DGENRE=Blues
TTITLE0=Skibinski - Winder Super Session (Katowice '82) - Blues na powitanie
TTITLE1=Krzak - Lista kowbojow
TTITLE2=Leszek Winder - Blues dla Dzidka II - Abym mogl przed siebie isc
TTITLE3=Ryszard Skibinski - Taki sobie blues
TTITLE4=Jozef Skrzek - Powiedz mi mala
TTITLE5=Nocna Zmiana Bluesa - Hotelowy blues
TTITLE6=Martyna Jakubowicz - W domach z betonu nie ma wolnej milosci
TTITLE7=Skibinski - Winder Super Session - Blues na pozegnanie
EXTD=
EXTT0=
EXTT1=
EXTT2=
EXTT3=
EXTT4=
EXTT5=
EXTT6=
EXTT7=
PLAYORDER=
